<?xml version="1.0" standalone="no"?>
<!DOCTYPE svg PUBLIC "-//W3C//DTD SVG 20010904//EN"
 "http://www.w3.org/TR/2001/REC-SVG-20010904/DTD/svg10.dtd">
<svg version="1.0" xmlns="http://www.w3.org/2000/svg"
 width="177.000000pt" height="177.000000pt" viewBox="0 0 177.000000 177.000000"
 preserveAspectRatio="xMidYMid meet">
<metadata>
Created by potrace 1.14, written by Peter Selinger 2001-2017
</metadata>
<g transform="translate(0.000000,177.000000) scale(0.100000,-0.100000)"
fill="#000000" stroke="none">
<path d="M589 1476 c-2 -2 -26 -7 -54 -11 -187 -24 -368 -148 -462 -315 -98
-174 -92 -409 14 -512 66 -64 103 -74 338 -93 123 -9 168 -22 324 -91 101 -44
165 -48 236 -14 l44 21 33 -24 c68 -51 226 -117 318 -132 147 -25 292 7 360
79 36 40 39 128 7 226 -63 191 -146 409 -169 445 -38 60 -111 123 -151 130
-42 8 -64 2 -111 -30 l-36 -24 -26 52 c-71 140 -220 250 -384 282 -39 8 -275
17 -281 11z"/>
</g>
</svg>
